# xmcd
#
# Track frame offsets:
#	150
#	17598
#	33996
#	53319
#	66792
#	81915
#	100113
#	114861
#	130959
#	148782
#
# Disc length: 2149 seconds
#
# Revision: 0
# Processed by: cddbd v1.5.2PL0 Copyright (c) Steve Scherf et al.
# Submitted via: SynApp - FreeCDDB Version: 2.5
#
DISCID=7808630a
DTITLE=Russell Kate - Kick Down The Door
DYEAR=2008
DGENRE=Country
TTITLE0=Kate Russell - Mr. Right
TTITLE1=Kate Russell - Our Redneck Neighbor
TTITLE2=Kate Russell - The Man He Could Be
TTITLE3=Kate Russell - Low Percentage
TTITLE4=Kate Russell - Coyote Moon
TTITLE5=Kate Russell - Red Cloud Road
TTITLE6=Kate Russell - Damned If I Do
TTITLE7=Kate Russell - Table 32
TTITLE8=Kate Russell - The Cell Phone Song
TTITLE9=Kate Russell - Kick Down The Door
EXTD=
EXTT0=
EXTT1=
EXTT2=
EXTT3=
EXTT4=
EXTT5=
EXTT6=
EXTT7=
EXTT8=
EXTT9=
PLAYORDER=
